<svg xmlns="http://www.w3.org/2000/svg" width="382.339" height="382.405" viewBox="0 0 382.339 382.405">
  <g id="Group_4" data-name="Group 4" transform="translate(-541.39 -193.407)">
    <g id="Group_3" data-name="Group 3">
      <path id="Path_7" data-name="Path 7" d="M825.154,193.407h5.974c7.983,2.941,11.143,8.727,10.671,17.1-.356,6.326-.07,12.688-.07,19.034v4.864c13.566,0,26.5-.029,39.434.006,24.959.069,42.545,17.6,42.552,42.511q.034,128.225-.038,256.449a47.278,47.278,0,0,1-1.134,10.711c-4.522,19.209-20.758,31.641-41.2,31.646q-136.251.03-272.5.007c-9.208,0-18.423.21-27.621-.084-13.082-.417-23.615-6.049-31.666-16.4-4.468-5.742-6.471-12.477-8.168-19.363V270.322a5.542,5.542,0,0,0,.563-1.366c2.112-17.166,18.21-35.279,42.472-34.6,11.55.323,23.116.056,34.674.056h4.287c0-8.195.31-15.891-.084-23.551-.435-8.467,2.508-14.457,10.685-17.451h5.974c7.984,2.941,11.144,8.728,10.672,17.1-.357,6.326-.071,12.688-.071,19.034v4.624H814.553c0-8.042.3-15.866-.081-23.658C814.069,202.133,817.17,196.348,825.154,193.407ZM568.733,357.476v4.648q0,84.752.009,169.5a42.186,42.186,0,0,0,.235,5.216,13.227,13.227,0,0,0,11.264,11.3,44.475,44.475,0,0,0,5.588.242q146.729.017,293.456,0a44.292,44.292,0,0,0,5.588-.243,13.233,13.233,0,0,0,11.267-11.3,38.513,38.513,0,0,0,.232-4.842q.016-85.125.01-170.249v-4.275Zm272.945-95.823c0,9.663.156,18.736-.049,27.8a13.5,13.5,0,0,1-26.981.005c-.214-7.835-.079-15.68-.1-23.52,0-1.308,0-2.616,0-3.915H650.477c0,9.57.181,18.777-.061,27.973A13.066,13.066,0,0,1,638.3,302.472c-6.974.521-13.025-3.648-14.5-10.232a29.852,29.852,0,0,1-.4-6.311c-.041-7.929-.016-15.859-.016-24.063-1.606-.085-2.817-.2-4.029-.2q-17.175-.021-34.349,0c-11.138.024-16.252,5.1-16.268,16.161q-.037,24.081,0,48.164c0,1.208.118,2.416.187,3.758H896.181c.077-1.219.191-2.2.192-3.177.01-16.553.059-33.106-.013-49.658-.042-9.878-5.349-15.119-15.3-15.237-6.72-.08-13.441-.017-20.162-.017C854.7,261.652,848.5,261.653,841.678,261.653Z"/>
      <path id="Path_13" data-name="Path 13" d="M705.25,489.119c1.6-2.053,2.335-3.239,3.3-4.2q47.088-47.154,94.259-94.225a23.057,23.057,0,0,1,7.2-5.1c5.551-2.268,12.049.1,15.495,5.027a13.518,13.518,0,0,1-.4,16.02,31.244,31.244,0,0,1-2.76,3.031q-52.793,52.8-105.6,105.585c-7.83,7.827-15.136,7.867-22.906.108q-25.754-25.722-51.492-51.461c-3.532-3.521-5.8-7.508-5.037-12.634.825-5.52,3.944-9.42,9.253-11.142,5.454-1.77,10.307-.318,14.356,3.727q20.6,20.582,41.167,41.2A49.165,49.165,0,0,1,705.25,489.119Z"/>
    </g>
  </g>
</svg>
