<svg xmlns="http://www.w3.org/2000/svg" width="384.002" height="384.027" viewBox="0 0 384.002 384.027">
  <g id="Group_4" data-name="Group 4" transform="translate(-682.5 -184.5)">
    <g id="Group_3" data-name="Group 3">
      <path id="Path_7" data-name="Path 7" d="M968.25,184.5h16.5c2.428.469,4.847.987,7.284,1.4,41.068,6.963,72.72,42.784,74.392,84.2,1.731,42.892-26.34,81.085-67.293,91.427-4.921,1.242-9.962,2.006-15.133,3.028v4.558q0,86.959,0,173.921c0,16.538-8.915,25.46-25.438,25.46q-116.76,0-233.519,0c-6.747,0-13.495.076-20.241-.026a22.49,22.49,0,0,1-21.207-15.566c-.357-1.055-.729-2.106-1.094-3.158V233.25c3.735-13.729,13.58-18.971,27.541-18.9,65.1.336,130.207.134,195.311.2a8.465,8.465,0,0,0,6.833-2.785,85.682,85.682,0,0,1,38.6-23.437C956.5,186.674,962.423,185.755,968.25,184.5Zm-69.733,45h-4.335q-93.352,0-186.707,0c-7.615,0-9.974,2.407-9.974,10.165q0,137.406,0,274.813v3.955H968.827V364.463a8.375,8.375,0,0,0-1.541-.485,91.417,91.417,0,0,1-33.13-9.991,6.606,6.606,0,0,0-4.225-.31c-6.424,1.557-12.8,3.324-19.189,5.016-13.1,3.467-21.945-5.283-18.486-18.273,1.605-6.027,3.067-12.1,4.86-18.069a8.82,8.82,0,0,0-.763-7.087,88.626,88.626,0,0,1-8.558-55.641A94.39,94.39,0,0,1,898.517,229.5Zm8.214,114.758c7.926-2.124,15.182-3.931,22.347-6.045A12.1,12.1,0,0,1,939.4,339.58a71.652,71.652,0,0,0,32.322,9.777c46.64,3.089,85.05-37.29,79.061-83.74-3.908-30.313-20.786-51.485-49.512-61.656-28.642-10.141-54.864-3.964-76.93,16.86-24.82,23.422-29.937,60.777-13.067,90.487a13.178,13.178,0,0,1,1.421,11.033C910.592,329.37,908.821,336.5,906.731,344.258Zm62.238,189.8H697.5c0,3.161,0,6.021,0,8.881,0,8.407,2.187,10.562,10.71,10.563H958.3c1.125,0,2.254.049,3.373-.034,4.118-.306,7.065-3.079,7.256-7.171C969.115,542.319,968.969,538.329,968.969,534.056Z"/>
      <path id="Path_13" data-name="Path 13" d="M769.3,324.513c-17.846-18.594-13.295-42.473.168-54.931a37.512,37.512,0,0,1,51.3.228c13.4,12.641,17.581,36.262.033,54.6,1.219.629,2.359,1.211,3.492,1.805,23.9,12.542,36.747,32.24,38.137,59.243.314,6.1-2.668,9.03-8.778,9.033q-58.648.031-117.3,0c-6.117,0-9.1-2.923-8.788-9.023,1.375-27.009,14.222-46.7,38.139-59.225C766.8,325.666,767.938,325.164,769.3,324.513Zm77.325,54.816c-2.049-21.449-22.98-46.721-55.328-44.7-24.31,1.52-49.139,24.979-47.636,44.7Zm-51.68-59.838a22.489,22.489,0,1,0-22.432-22.454A22.571,22.571,0,0,0,794.943,319.491Z"/>
      <path id="Path_14" data-name="Path 14" d="M832.828,498.844q-47.211,0-94.423,0c-1.249,0-2.5.043-3.746-.048a7.357,7.357,0,0,1-7.117-6.883,7.476,7.476,0,0,1,6.1-7.833,18.791,18.791,0,0,1,3.726-.226q95.922-.014,191.844.016a16.137,16.137,0,0,1,4.783.6A7.222,7.222,0,0,1,938.952,492a7.372,7.372,0,0,1-6.46,6.737,34.424,34.424,0,0,1-4.117.1Q880.6,498.848,832.828,498.844Z"/>
      <path id="Path_15" data-name="Path 15" d="M832.874,429.25q-47.437,0-94.874,0c-6.952,0-10.412-2.44-10.477-7.354-.065-5,3.6-7.643,10.661-7.643q95.061,0,190.122.016a22.571,22.571,0,0,1,5.2.446,7.339,7.339,0,0,1-.9,14.37,34.452,34.452,0,0,1-4.491.161Q880.5,429.256,832.874,429.25Z"/>
      <path id="Path_16" data-name="Path 16" d="M850.558,449.156q38.963,0,77.924,0a32.809,32.809,0,0,1,4.116.112,7.364,7.364,0,0,1,6.332,6.451,7.207,7.207,0,0,1-4.674,7.712,17.923,17.923,0,0,1-5.515.693q-78.674.053-157.348.009a18.006,18.006,0,0,1-4.8-.493,7.356,7.356,0,0,1,1.55-14.408c2.362-.17,4.743-.077,7.115-.078Q812.907,449.154,850.558,449.156Z"/>
      <path id="Path_17" data-name="Path 17" d="M735.261,449.191a7.4,7.4,0,0,1,7.213,7.48,7.473,7.473,0,1,1-14.946-.144A7.407,7.407,0,0,1,735.261,449.191Z"/>
      <path id="Path_18" data-name="Path 18" d="M1007.858,274.789c2.636,2.356,5,4.211,7.061,6.356,8.787,9.147,8.758,22.943.034,31.7-8.748,8.784-22.474,8.887-31.707.172-2.174-2.052-4.161-4.3-7.271-7.542a79.054,79.054,0,0,1-5.593,6.9c-9.436,9.3-23.254,9.478-32.236.557s-8.847-22.788.366-32.243c1.912-1.962,4.02-3.733,7.116-6.584a85.693,85.693,0,0,1-7.015-5.74c-9.3-9.442-9.48-23.252-.553-32.228s22.768-8.84,32.254.352c1.969,1.907,3.849,3.907,6.735,6.847a76.83,76.83,0,0,1,5.048-6.2c9.779-9.783,23.57-10.2,32.752-1.092s8.812,23.017-.863,32.785C1012.232,270.6,1010.412,272.31,1007.858,274.789Zm-44.369-.338c-1.284,2.18-2.115,4.306-3.549,5.881-3.358,3.689-7.049,7.072-10.524,10.657-3.636,3.751-3.847,8.092-.673,11.268s7.513,2.968,11.274-.668c3.5-3.384,6.866-6.9,10.344-10.312,4.226-4.139,8.069-4.119,12.347.064,3.392,3.317,6.685,6.734,10.081,10.047,3.93,3.834,8.31,4.105,11.534.8,3.124-3.2,2.865-7.476-.808-11.267-3.387-3.5-6.9-6.868-10.3-10.351-4-4.1-4.029-8.007-.061-12.077,3.485-3.575,7.11-7.016,10.565-10.62,3.574-3.727,3.67-8.165.412-11.264-3.15-3-7.4-2.8-11,.673s-7.035,7.09-10.619,10.567c-4.091,3.97-7.96,3.941-12.082-.065-3.222-3.133-6.354-6.358-9.54-9.528-4.406-4.382-8.648-4.931-12.078-1.583-3.45,3.368-2.984,7.721,1.326,12.073,3.251,3.282,6.648,6.429,9.742,9.85C961.31,270.183,962.179,272.279,963.489,274.451Z"/>
    </g>
  </g>
</svg>
