<svg xmlns="http://www.w3.org/2000/svg" width="392.734" height="409.58" viewBox="0 0 392.734 409.58">
  <g id="Group_4" data-name="Group 4" transform="translate(-110.037 -188.02)">
    <g id="Group_3" data-name="Group 3">
      <path id="Path_8" data-name="Path 8" d="M302.4,597.6c-10.778-1.736-18.982-7.766-26.374-15.4-5.838-6.031-12.137-11.613-18.053-17.572-3.924-3.953-8.358-5.2-13.812-4.318q-15.183,2.454-30.451,4.372c-22.489,2.8-38.758-9.68-42.465-32.3-1.594-9.723-3.383-19.413-4.986-29.134a14.645,14.645,0,0,0-8.4-11.36c-9.255-4.71-18.415-9.609-27.543-14.56-18.989-10.3-25.351-29.831-16.064-49.34,4.463-9.375,9-18.717,13.7-27.974a14.9,14.9,0,0,0-.021-14.478c-4.643-9.137-9.106-18.366-13.542-27.606-9.524-19.839-3.091-39.447,16.334-49.871,8.915-4.785,17.789-9.659,26.837-14.183,5.284-2.642,7.942-6.646,8.847-12.367,1.622-10.256,3.325-20.509,5.394-30.682,4.4-21.614,21.436-33.194,43.207-29.768,10.129,1.594,20.295,2.956,30.444,4.423a13.507,13.507,0,0,0,12.007-4.038q11.421-11.2,22.993-22.247c15.605-14.9,36.271-14.9,51.877-.017,7.523,7.177,15.057,14.349,22.4,21.707,4.051,4.059,8.587,5.3,14.178,4.385,10.119-1.651,20.268-3.191,30.452-4.361,22.171-2.549,38.033,9.4,42.03,31.438,1.759,9.694,3.5,19.395,5,29.131.882,5.727,3.55,9.738,8.827,12.383,8.925,4.472,17.669,9.3,26.479,14.006,20.057,10.7,26.381,30.259,16.409,50.752-4.252,8.738-8.36,17.552-12.864,26.159-2.852,5.449-2.911,10.446-.061,15.922,4.67,8.971,9.006,18.119,13.354,27.253,9.3,19.544,2.982,39.036-16.009,49.35-9.009,4.892-18.02,9.793-27.192,14.366-5.435,2.711-8.079,6.836-8.984,12.713-1.56,10.13-3.287,20.244-5.325,30.288-4.4,21.669-21.342,33.264-43.124,29.886-10.133-1.571-20.3-2.933-30.446-4.409a13.469,13.469,0,0,0-12.038,3.936c-6.18,6.074-12.614,11.9-18.643,18.114-7.4,7.63-15.6,13.664-26.373,15.4Zm101.995-56.039c7.041.21,11.957-3.521,13.184-9.924,1.753-9.151,3.71-18.3,4.784-27.538,1.923-16.531,9.954-28.178,25.217-35.126,8.1-3.688,15.826-8.222,23.686-12.436,7.926-4.249,9.91-10.275,6.02-18.325-4.516-9.348-9.016-18.706-13.694-27.973-5.89-11.665-5.892-23.205-.005-34.871,4.557-9.03,8.909-18.164,13.331-27.261,4.386-9.025,2.532-14.672-6.36-19.4-9.169-4.874-18.358-9.709-27.518-14.6-10.5-5.608-17.166-14.12-19.323-25.94-2.032-11.131-3.919-22.289-6.007-33.409-1.465-7.8-6.9-11.667-14.688-10.579-10.154,1.418-20.316,2.8-30.438,4.432-13.471,2.165-24.969-1.336-34.647-11.075-7.046-7.09-14.336-13.937-21.53-20.879-7.021-6.776-13.038-6.738-20.144.125q-11.219,10.833-22.42,21.683c-8.454,8.148-18.445,11.985-30.218,10.436-11.089-1.46-22.163-3.04-33.232-4.648-8.3-1.207-13.78,2.467-15.338,10.682-1.662,8.762-3.61,17.507-4.587,26.354-1.848,16.732-10.023,28.426-25.411,35.43-7.983,3.634-15.587,8.1-23.334,12.247-8.179,4.374-10.13,10.3-6.117,18.585,4.526,9.343,9.04,18.693,13.691,27.974,5.781,11.536,5.787,22.979.015,34.518-4.585,9.166-9.026,18.4-13.507,27.621-4.271,8.786-2.4,14.521,6.246,19.131,9.046,4.822,18.075,9.676,27.172,14.4,11.761,6.1,18.359,15.727,20.4,28.763,1.588,10.125,3.442,20.211,5.347,30.281,1.667,8.811,7,12.369,15.781,11.037,10.137-1.538,20.3-2.9,30.444-4.4,13.207-1.949,24.378,1.962,33.811,11.347,6.993,6.955,14.155,13.74,21.251,20.591s13.123,6.9,20.141.131c7-6.757,14.154-13.369,20.948-20.329,10.152-10.4,22.17-13.955,36.411-11.438C384.114,539.009,394.582,540.181,404.395,541.561Z"/>
      <path id="Path_10" data-name="Path 10" d="M396.7,315.069c-1.059,2.369-2,4.8-3.229,7.08a14.3,14.3,0,0,1-2.682,2.941q-76.037,76.05-152.069,152.1c-2.9,2.9-5.9,5.4-10.312,5.291a11.734,11.734,0,0,1-9.355-18.732,27.956,27.956,0,0,1,2.96-3.241q76.035-76.053,152.07-152.106c2.9-2.9,5.9-5.355,10.311-5.3C390.872,303.183,396.05,308.309,396.7,315.069Z"/>
      <path id="Path_11" data-name="Path 11" d="M258.965,373.032a43.279,43.279,0,1,1,43.458-42.942A43.171,43.171,0,0,1,258.965,373.032Zm.345-62.781A19.6,19.6,0,0,0,239.5,329.558c-.239,10.683,8.941,19.973,19.707,19.944a19.866,19.866,0,0,0,19.588-19.639A19.559,19.559,0,0,0,259.31,310.251Z"/>
      <path id="Path_12" data-name="Path 12" d="M353.752,412.6A43.265,43.265,0,1,1,310.387,455.6,43.114,43.114,0,0,1,353.752,412.6Zm-.265,62.754a19.569,19.569,0,0,0,19.817-19.3c.248-10.708-8.894-19.958-19.7-19.932a19.826,19.826,0,0,0-19.6,19.619A19.545,19.545,0,0,0,353.487,475.349Z"/>
    </g>
  </g>
</svg>
