<svg xmlns="http://www.w3.org/2000/svg" width="169.746" height="292.004" viewBox="0 0 169.746 292.004">
  <g id="Group_4" data-name="Group 4" transform="translate(-463.766 -202.461)">
    <g id="Group_3" data-name="Group 3">
      <path id="Path_8" data-name="Path 8" d="M616.508,202.461c6.32,1.6,11.839,4.554,14.551,10.748a26.848,26.848,0,0,1,2.349,10.4q.19,124.878.078,249.755c-.006,12.857-8.458,21.084-21.407,21.089q-63.294.021-126.588,0c-13.426,0-21.7-8.238-21.71-21.661q-.03-55.168-.007-110.337,0-69.139-.008-138.278c0-8.815,3.313-15.684,11.414-19.743a45.851,45.851,0,0,1,5.593-1.978Zm3.131,31.522h-141.9V457.765h141.9ZM538.862,474.8a9.78,9.78,0,1,0,9.641-9.93A9.847,9.847,0,0,0,538.862,474.8Zm9.481-253.4q9.955,0,19.911.006c1.718,0,3.476-.134,3.475-2.336,0-2.158-1.686-2.39-3.448-2.388q-19.628.031-39.253,0c-1.753,0-3.452.2-3.475,2.36-.023,2.2,1.721,2.367,3.447,2.363C535.448,221.4,541.9,221.407,548.343,221.408Z"/>
      <path id="Path_12" data-name="Path 12" d="M577.839,347.179h7.542c2.56,0,3.848,1.243,3.846,3.843-.01,14.723.016,29.446-.02,44.169-.007,2.819-1.172,3.977-4.02,3.98q-36.618.044-73.235,0c-2.782,0-3.908-1.208-3.914-4.082q-.049-21.942,0-43.884c.007-2.929,1.04-3.928,3.944-4.011,2.347-.067,4.7-.014,7.423-.014,0-1.535-.015-2.736,0-3.938.108-7.783-.563-15.676.5-23.327,2.146-15.4,16.005-25.7,31.631-24.47,14.364,1.133,25.962,13.8,26.268,28.841.131,6.456.028,12.917.031,19.377Zm-11.5-.176c0-8.261.281-16.239-.075-24.189-.4-8.956-8.437-16.033-17.565-16.062-9.236-.03-17.252,7.137-17.714,16.239-.327,6.443-.137,12.912-.174,19.37-.009,1.493,0,2.986,0,4.642Zm-11.685,34.323c-1.3-3.935-2.535-7.64-3.736-11.258,4.3-3.068,5.268-7.051,2.672-10.267a6.334,6.334,0,0,0-9.337-.581c-3.48,3.7-2.544,7.663,2.029,11.016l-3.661,11.09Z"/>
    </g>
  </g>
</svg>
