<svg xmlns="http://www.w3.org/2000/svg" viewBox="0 0 512 512" xmlns:v="https://vecta.io/nano"><path d="M0 154.474v260.414h512V105.923H48.552C21.734 105.923 0 127.665 0 154.474h0" fill="#fdb62f"/><path d="M17.655 189.785H0c.035-31.673 25.706-57.344 57.379-57.379H512v17.655H57.379c-21.927.026-39.697 17.796-39.724 39.724z" fill="#fd7b2f"/><path d="M476.69 229.509l19.341-19.341c13.718-13.718 13.798-35.946.177-49.761L348.398 10.523c-13.692-13.886-36.052-14.036-49.938-.344l-.009.009-195.548 193.094L291.31 414.888l185.38-185.379z" fill="#4398d1"/><path d="M329.83 68.059l-79.447 79.447-12.484-12.484 79.447-79.447zm26.485 26.455l-44.13 44.13-12.484-12.484 44.13-44.13zm38.336 35.319l-35.31 35.31-12.484-12.484 35.31-35.31zm-52.961 52.98l-26.484 26.484-12.484-12.484 26.484-26.484z" fill="#87ced9"/><circle cx="423.724" cy="203.026" r="35.31" fill="#de4c3c"/><path d="M48.552 203.026C21.734 203.026 0 181.293 0 154.474V463.44c0 26.818 21.734 48.552 48.552 48.552H476.69V203.026H48.552z" fill="#8f5436"/><path d="M344.276 291.302H512h0v123.586h0-167.724c-34.127 0-61.793-27.666-61.793-61.793h0 0c0-34.127 27.665-61.793 61.793-61.793z" fill="#a3603e"/><circle cx="344.276" cy="353.095" r="26.483" fill="#e5e5e5"/><path d="M449.871 255.992h-17.92v-17.655h17.92v17.655zm-35.857 0h-17.92v-17.655h17.92v17.655zm-35.831 0h-17.911v-17.655H378.2l-.017 17.655zm-35.84 0h-17.92v-17.655h17.92v17.655zm-35.832 0H288.6v-17.655h17.929l-.018 17.655zm-35.84 0h-17.92v-17.655h17.92v17.655zm-35.857 0h-17.876v-17.655h17.876v17.655zm-35.831 0h-17.876v-17.655h17.911l-.035 17.655zm-35.84 0h-17.876v-17.655h17.911l-.035 17.655zm-35.832 0h-17.849v-17.655h17.92l-.071 17.655zm-35.84 0H73.596v-17.655h17.911l-.036 17.655zm-35.795 0h-7.124a69.11 69.11 0 0 1-12.359-1.121l3.204-17.364c3.019.556 6.082.83 9.154.83h7.062l.063 17.655zm-39.054-8.298c-6.232-3.619-11.652-8.501-15.89-14.327l14.274-10.364c2.816 3.849 6.409 7.062 10.54 9.446l-8.924 15.245zm451.24-9.358h8.828v17.655h-8.828zm-17.991 238.345h-17.92v-17.655h17.92v17.655zm-35.857 0h-17.92v-17.655h17.92v17.655zm-35.831 0h-17.911v-17.655H378.2l-.017 17.655zm-35.84 0h-17.92v-17.655h17.92v17.655zm-35.832 0H288.6v-17.655h17.929l-.018 17.655zm-35.84 0h-17.92v-17.655h17.92v17.655zm-35.857 0h-17.876v-17.655h17.876v17.655zm-35.831 0h-17.876v-17.655h17.911l-.035 17.655zm-35.84 0h-17.876v-17.655h17.911l-.035 17.655zm-35.832 0h-17.849v-17.655h17.92l-.071 17.655zm-35.84 0H73.596v-17.655h17.911l-.036 17.655zm-35.795 0h-7.124a69.11 69.11 0 0 1-12.359-1.121l3.204-17.364c3.019.556 6.082.83 9.154.83h7.062l.063 17.655zm-39.054-8.298c-6.232-3.619-11.652-8.501-15.89-14.327l14.274-10.364c2.816 3.849 6.409 7.062 10.54 9.445l-8.924 15.246zm451.24-9.357h8.828v17.655h-8.828z" fill="#6b402a"/></svg>