<svg xmlns="http://www.w3.org/2000/svg" width="44.568" height="44.568" viewBox="0 0 44.568 44.568">
  <g id="_14-Gift" data-name="14-Gift" transform="translate(-1 -1)">
    <path id="Path_103" data-name="Path 103" d="M39.719,25H52.658V49.44a2.875,2.875,0,0,1-2.875,2.875H39V25Z" transform="translate(-10.684 -6.748)" fill="#ffad39"/>
    <path id="Path_104" data-name="Path 104" d="M19.658,25V52.316H8.875A2.875,2.875,0,0,1,6,49.44V25Z" transform="translate(-1.406 -6.748)" fill="#ffad39"/>
    <path id="Path_105" data-name="Path 105" d="M17.533,13v8.626H2.438A1.442,1.442,0,0,1,1,20.188V14.438A1.442,1.442,0,0,1,2.438,13Z" transform="translate(0 -3.374)" fill="#febd55"/>
    <path id="Path_106" data-name="Path 106" d="M56.533,14.438v5.751A1.442,1.442,0,0,1,55.1,21.626H40V13H55.1A1.442,1.442,0,0,1,56.533,14.438Z" transform="translate(-10.966 -3.374)" fill="#febd55"/>
    <path id="Path_107" data-name="Path 107" d="M34.188,10.438v1.438H27V10.438A1.442,1.442,0,0,1,28.438,9h4.313a1.442,1.442,0,0,1,1.438,1.438Z" transform="translate(-7.31 -2.249)" fill="#cb3541"/>
    <path id="Path_108" data-name="Path 108" d="M32.751,10.719H28.438A1.438,1.438,0,0,1,27.2,10a1.42,1.42,0,0,0-.2.719v1.438h7.188V10.719a1.42,1.42,0,0,0-.2-.719A1.438,1.438,0,0,1,32.751,10.719Z" transform="translate(-7.31 -2.531)" fill="#a81e29"/>
    <path id="Path_109" data-name="Path 109" d="M21.939,9.594v1.438H11.156A2.112,2.112,0,0,1,9,8.875C9,6,12.594,6,12.594,6a14.1,14.1,0,0,1,9.345,3.594Z" transform="translate(-2.249 -1.406)" fill="#e03e3e"/>
    <path id="Path_110" data-name="Path 110" d="M17.594,1c5.751,0,5.751,7.188,5.751,7.188A14.1,14.1,0,0,0,14,4.594S14,1,17.594,1Z" transform="translate(-3.655)" fill="#cb3541"/>
    <path id="Path_111" data-name="Path 111" d="M37,8.188S37,1,42.751,1c3.594,0,3.594,3.594,3.594,3.594A14.1,14.1,0,0,0,37,8.188Z" transform="translate(-10.122)" fill="#cb3541"/>
    <path id="Path_112" data-name="Path 112" d="M37,9.594A14.1,14.1,0,0,1,46.345,6s3.594,0,3.594,2.875a2.112,2.112,0,0,1-2.156,2.156H37Z" transform="translate(-10.122 -1.406)" fill="#e03e3e"/>
    <path id="Path_113" data-name="Path 113" d="M25,25H35.064V52.316H25Z" transform="translate(-6.748 -6.748)" fill="#cb3541"/>
    <path id="Path_114" data-name="Path 114" d="M35.5,13v8.626H24V13H35.5Z" transform="translate(-6.467 -3.374)" fill="#ff6161"/>
    <path id="Path_115" data-name="Path 115" d="M53.424,39.109c.151.683,1.7,1.222,1.7,1.955s-1.553,1.272-1.7,1.955c-.158.7,1.006,1.883.712,2.516s-1.934.446-2.372,1.006.122,2.135-.424,2.581-1.926-.46-2.559-.144-.791,1.977-1.474,2.135-1.531-1.265-2.243-1.265-1.574,1.423-2.243,1.265-.855-1.826-1.481-2.135-2.013.589-2.552.144.007-2.027-.431-2.581-2.056-.359-2.365-1.006.87-1.811.712-2.516c-.151-.683-1.7-1.222-1.7-1.955s1.553-1.272,1.7-1.955c.158-.7-1.006-1.883-.712-2.516s1.934-.446,2.372-1.006-.122-2.135.424-2.581,1.926.46,2.559.144.791-1.977,1.474-2.135,1.531,1.265,2.243,1.265,1.574-1.423,2.243-1.265.855,1.826,1.481,2.135,2.013-.589,2.552-.144-.007,2.027.431,2.581,2.056.359,2.365,1.006S53.266,38.4,53.424,39.109Z" transform="translate(-9.56 -8.436)" fill="#cb3541"/>
    <path id="Path_116" data-name="Path 116" d="M53.814,41.907c0,.575-1.222,1-1.339,1.536-.123.555.791,1.479.557,1.98s-1.518.349-1.859.786.092,1.681-.336,2.031-1.51-.359-2.008-.114-.623,1.554-1.163,1.68c-.524.122-1.2-1-1.76-1s-1.236,1.121-1.76,1c-.541-.126-.675-1.438-1.163-1.68s-1.581.463-2.008.114.006-1.592-.336-2.031-1.62-.276-1.859-.786.681-1.425.558-1.979C39.222,42.906,38,42.482,38,41.907s1.222-1,1.339-1.536c.123-.555-.791-1.479-.557-1.98s1.518-.349,1.859-.786-.092-1.681.336-2.031,1.51.359,2.008.114.623-1.554,1.163-1.68c.524-.122,1.2,1,1.76,1s1.236-1.121,1.76-1c.541.126.675,1.438,1.163,1.68s1.581-.463,2.008-.114-.006,1.592.336,2.031,1.62.278,1.859.786-.681,1.425-.558,1.979C52.592,40.908,53.814,41.332,53.814,41.907Z" transform="translate(-10.403 -9.279)" fill="#ff6161"/>
    <path id="Path_117" data-name="Path 117" d="M51.156,51.313a2.156,2.156,0,1,1,2.156-2.156A2.156,2.156,0,0,1,51.156,51.313Zm0-2.875a.719.719,0,1,0,.719.719A.719.719,0,0,0,51.156,48.438Z" transform="translate(-13.496 -12.934)" fill="#fbfbfb"/>
    <path id="Path_118" data-name="Path 118" d="M45.156,41.313a2.156,2.156,0,1,1,2.156-2.156A2.156,2.156,0,0,1,45.156,41.313Zm0-2.875a.719.719,0,1,0,.719.719A.719.719,0,0,0,45.156,38.438Z" transform="translate(-11.809 -10.122)" fill="#fbfbfb"/>
    <path id="Path_119" data-name="Path 119" d="M43.719,47.626a.719.719,0,0,1-.508-1.227L50.4,39.211a.719.719,0,1,1,1.017,1.017l-7.188,7.188A.719.719,0,0,1,43.719,47.626Z" transform="translate(-11.809 -10.684)" fill="#fbfbfb"/>
    <path id="Path_120" data-name="Path 120" d="M52.658,27.875V25H39v2.875Z" transform="translate(-10.684 -6.748)" fill="#e68c15"/>
    <path id="Path_121" data-name="Path 121" d="M49.782,57.875H39v2.875H49.782a2.875,2.875,0,0,0,2.875-2.875V55A2.875,2.875,0,0,1,49.782,57.875Z" transform="translate(-10.684 -15.183)" fill="#e68c15"/>
    <path id="Path_122" data-name="Path 122" d="M9.594,36.5V30.751a2.875,2.875,0,0,1,2.875-2.875h7.188V25H6V49.44a2.875,2.875,0,0,0,2.875,2.875H19.658V49.109A12.939,12.939,0,0,1,9.594,36.5Z" transform="translate(-1.406 -6.748)" fill="#e68c15"/>
    <path id="Path_123" data-name="Path 123" d="M27.875,58.87A12.976,12.976,0,0,1,25,58.539v3.207H35.064V58.87Z" transform="translate(-6.748 -16.178)" fill="#a81e29"/>
    <path id="Path_124" data-name="Path 124" d="M25,25H35.064v2.875H25Z" transform="translate(-6.748 -6.748)" fill="#a81e29"/>
    <path id="Path_125" data-name="Path 125" d="M8.548,18.032a2.516,2.516,0,1,1,0-5.032H2.438A1.442,1.442,0,0,0,1,14.438v5.751a1.442,1.442,0,0,0,1.438,1.438h15.1V18.032Z" transform="translate(0 -3.374)" fill="#ffa930"/>
    <path id="Path_126" data-name="Path 126" d="M55.1,19.438H40v3.594H55.1a1.442,1.442,0,0,0,1.438-1.438V18A1.438,1.438,0,0,1,55.1,19.438Z" transform="translate(-10.966 -4.78)" fill="#ffa930"/>
    <path id="Path_127" data-name="Path 127" d="M24,20v3.594H35.5V20Z" transform="translate(-6.467 -5.342)" fill="#cb3541"/>
    <path id="Path_128" data-name="Path 128" d="M20.469,5.332s-4.194-1.4-6.377-.743A4.273,4.273,0,0,0,14,5.332a14.1,14.1,0,0,1,9.345,3.594,9.688,9.688,0,0,0-1.689-5.3C21.658,4.533,21.4,5.332,20.469,5.332Z" transform="translate(-3.655 -0.738)" fill="#a81e29"/>
    <path id="Path_129" data-name="Path 129" d="M40.594,5.022c-1.193,0-1.285-1.32-1.129-2.5C37,4.532,37,8.616,37,8.616a14.1,14.1,0,0,1,9.345-3.594,4.339,4.339,0,0,0-.124-.887A17.175,17.175,0,0,0,40.594,5.022Z" transform="translate(-10.122 -0.428)" fill="#a81e29"/>
    <path id="Path_130" data-name="Path 130" d="M18.975,8.41a.725.725,0,0,1-.7.876H11.156A1.438,1.438,0,0,1,9.718,7.849V7.463A2.464,2.464,0,0,0,9,9.287a2.112,2.112,0,0,0,2.156,2.156H21.938V10.006A12.859,12.859,0,0,0,18.827,7.9a3.443,3.443,0,0,1,.149.514Z" transform="translate(-2.249 -1.817)" fill="#cb3541"/>
    <path id="Path_131" data-name="Path 131" d="M48.5,9.3H41.385a.725.725,0,0,1-.7-.876,3.37,3.37,0,0,1,.338-.921A13.462,13.462,0,0,0,37,10.016v1.438H47.782A2.112,2.112,0,0,0,49.939,9.3a2.816,2.816,0,0,0-.129-.849A1.438,1.438,0,0,1,48.5,9.3Z" transform="translate(-10.122 -1.828)" fill="#cb3541"/>
    <path id="Path_132" data-name="Path 132" d="M49.438,26.873V13H48V26.873a.922.922,0,0,0,1.438,0Z" transform="translate(-13.215 -3.374)" fill="#a81e29"/>
    <path id="Path_133" data-name="Path 133" d="M35.148,47.954c-.295-.633.87-1.811.712-2.516-.151-.683-1.7-1.222-1.7-1.955s1.553-1.272,1.7-1.955c.116-.52-.484-1.294-.691-1.924-.6.359-1.9.272-2.177.846-.295.633.87,1.811.712,2.516-.151.683-1.7,1.222-1.7,1.955s1.553,1.272,1.7,1.955c.158.7-1.006,1.883-.712,2.516s1.934.446,2.365,1.006-.115,2.135.431,2.581c.27.223.751.108,1.244-.024V48.668C36.378,48.449,35.384,48.446,35.148,47.954Z" transform="translate(-8.716 -10.854)" fill="#961b25"/>
    <g id="Group_79175" data-name="Group 79175" transform="translate(28.316 18.252)">
      <path id="Path_134" data-name="Path 134" d="M43.946,57.078c-.683-.158-.855-1.826-1.481-2.135s-2.013.589-2.552.144.007-2.027-.431-2.581A.992.992,0,0,0,39,52.214V56.5a2.144,2.144,0,0,1,1.308-.12,1.456,1.456,0,0,1,.534.712c.275.589.5,1.321.947,1.423.669.158,1.531-1.265,2.243-1.265s1.574,1.423,2.243,1.265c.442-.1.671-.834.945-1.423a2.681,2.681,0,0,1,.262-.458c-.438-.367-.889-.822-1.294-.822C45.477,55.812,44.614,57.236,43.946,57.078Z" transform="translate(-39 -32.652)" fill="#e68c15"/>
      <path id="Path_135" data-name="Path 135" d="M54.462,55.946a1.078,1.078,0,0,0-.647.037c-.4.2-.619.979-.909,1.541.515.138,1.026.273,1.312.04C54.555,57.289,54.472,56.579,54.462,55.946Z" transform="translate(-42.91 -33.692)" fill="#e68c15"/>
      <path id="Path_136" data-name="Path 136" d="M43.342,33.712a.824.824,0,0,0,.27-.258c-.336-.28-.663-.508-.953-.439-.236.055-.41.3-.564.594A2.013,2.013,0,0,0,43.342,33.712Z" transform="translate(-39.87 -27.25)" fill="#e68c15"/>
      <path id="Path_137" data-name="Path 137" d="M45.633,29.327a1.05,1.05,0,0,1,.805.321V25H45v5.056C45.17,29.695,45.359,29.391,45.633,29.327Z" transform="translate(-40.687 -25)" fill="#e68c15"/>
    </g>
    <path id="Path_138" data-name="Path 138" d="M38.41,35.763c-.491-.131-.971-.244-1.244-.022-.376.307-.235,1.15-.249,1.824.414-.183,1.032-.236,1.492-.388Z" transform="translate(-10.095 -9.733)" fill="#961b25"/>
  </g>
</svg>
