<svg xmlns="http://www.w3.org/2000/svg" width="52.753" height="49.774" viewBox="0 0 52.753 49.774">
  <g id="lounge" transform="translate(0 -14.457)">
    <path id="Path_139" data-name="Path 139" d="M81.877,418.25v6.926a.835.835,0,0,0,1.623.274l2.5-7.2Z" transform="translate(-73.441 -362.189)" fill="#407093"/>
    <path id="Path_140" data-name="Path 140" d="M84.025,418.25l-2.148,6.183v.744a.835.835,0,0,0,1.623.274l2.5-7.2Z" transform="translate(-73.441 -362.189)" fill="#365e7d"/>
    <path id="Path_141" data-name="Path 141" d="M279.582,418.25l2.5,7.2a.835.835,0,0,0,1.623-.274V418.25Z" transform="translate(-250.776 -362.189)" fill="#407093"/>
    <path id="Path_142" data-name="Path 142" d="M301.926,418.25v6.625l.2.575a.835.835,0,0,0,1.623-.274V418.25Z" transform="translate(-270.818 -362.189)" fill="#365e7d"/>
    <g id="Group_79176" data-name="Group 79176" transform="translate(41.559 19.891)">
      <path id="Path_143" data-name="Path 143" d="M411.6,84.712c1.054,7.412-.442,9.685-2.642,10s-4.271-1.452-5.325-8.865c-.824-5.8.4-14.638.978-18.219a.514.514,0,0,1,.972-.138C407.134,70.767,410.777,78.916,411.6,84.712Z" transform="translate(-403.358 -67.193)" fill="#78d0b1"/>
    </g>
    <g id="Group_79177" data-name="Group 79177" transform="translate(42.323 19.891)">
      <path id="Path_144" data-name="Path 144" d="M418.251,84.714c-.824-5.8-4.468-13.945-6.018-17.224a.514.514,0,0,0-.972.138c-.138.861-.314,2.027-.49,3.382,1.7,3.933,3.822,9.452,4.427,13.7.862,6.065.017,8.688-1.524,9.613a2.8,2.8,0,0,0,1.934.385C417.808,94.4,419.3,92.126,418.251,84.714Z" transform="translate(-410.771 -67.195)" fill="#66b49d"/>
    </g>
    <g id="Group_79178" data-name="Group 79178" transform="translate(38.342 36.173)">
      <path id="Path_145" data-name="Path 145" d="M381.179,237.89c1.984,5.7.823,7.841-1.276,8.572s-4.34-.229-6.324-5.926c-1.557-4.47-1.5-11.845-1.406-14.814a.514.514,0,0,1,.906-.315c1.919,2.267,6.543,8.013,8.1,12.483Z" transform="translate(-372.133 -225.225)" fill="#78d0b1"/>
    </g>
    <g id="Group_79179" data-name="Group 79179" transform="translate(38.342 36.173)">
      <path id="Path_146" data-name="Path 146" d="M381.18,237.889c-1.557-4.47-6.18-10.216-8.1-12.483a.514.514,0,0,0-.906.315c-.024.747-.046,1.773-.04,2.961,2.194,2.784,5.162,6.93,6.348,10.338,1.458,4.188,1.216,6.454.153,7.652a3.526,3.526,0,0,0,1.269-.211c2.1-.731,3.26-2.875,1.276-8.572Z" transform="translate(-372.134 -225.223)" fill="#66b49d"/>
    </g>
    <g id="Group_79180" data-name="Group 79180" transform="translate(43.212 29.359)">
      <path id="Path_147" data-name="Path 147" d="M427.91,177.794c-1.492,7.337-3.664,8.976-5.841,8.533s-3.537-2.8-2.044-10.137c1.167-5.737,5.287-13.655,7.029-16.837a.514.514,0,0,1,.962.2c.361,3.609,1.061,12.508-.105,18.245Z" transform="translate(-419.396 -159.086)" fill="#86f1a7"/>
    </g>
    <g id="Group_79181" data-name="Group 79181" transform="translate(44.419 29.359)">
      <path id="Path_148" data-name="Path 148" d="M438.525,159.548a.514.514,0,0,0-.962-.2c-.419.764-.975,1.8-1.594,3.019.3,4.3.473,10.392-.4,14.7-1.173,5.769-2.767,8.015-4.453,8.5a2.836,2.836,0,0,0,1.465.757c2.178.443,4.349-1.2,5.841-8.533C439.586,172.057,438.886,163.158,438.525,159.548Z" transform="translate(-431.113 -159.085)" fill="#78d0b1"/>
    </g>
    <g id="Group_79182" data-name="Group 79182" transform="translate(0 42.546)">
      <path id="Path_149" data-name="Path 149" d="M7.451,298.907,1.338,293.74a3.775,3.775,0,0,1,3.989-6.323l7.144,3.224,2.389,8.274Z" transform="translate(0 -287.083)" fill="#f1d333"/>
    </g>
    <g id="Group_79183" data-name="Group 79183" transform="translate(1.227 42.547)">
      <path id="Path_150" data-name="Path 150" d="M12.051,288.137l3.408,1.538a8.869,8.869,0,0,1,4.873,5.624l1.043,3.614,4.163,0-2.389-8.274-7.144-3.224a3.775,3.775,0,0,0-4.1.656c.049.02.1.04.146.062Z" transform="translate(-11.905 -287.085)" fill="#e7a561"/>
    </g>
    <g id="Group_79184" data-name="Group 79184" transform="translate(26.507 42.546)">
      <path id="Path_151" data-name="Path 151" d="M264.677,298.907l6.113-5.167a3.775,3.775,0,0,0-3.989-6.323l-7.144,3.224-2.389,8.274Z" transform="translate(-257.268 -287.083)" fill="#f1d333"/>
    </g>
    <g id="Group_79185" data-name="Group 79185" transform="translate(26.507 43.061)">
      <path id="Path_152" data-name="Path 152" d="M271.509,293.265a3.764,3.764,0,0,0-1.253-1.187,3.776,3.776,0,0,1-1.109,4.178l-6.113,5.167-5.2.006-.568,1.967,7.409-.008,6.113-5.167A3.775,3.775,0,0,0,271.509,293.265Z" transform="translate(-257.27 -292.078)" fill="#e7a561"/>
    </g>
    <g id="Group_79186" data-name="Group 79186" transform="translate(6.097 28.56)">
      <path id="Path_153" data-name="Path 153" d="M84.663,154.774H80.844a2.685,2.685,0,0,1-2.111-1.022,6.322,6.322,0,0,0-9.945,0,2.685,2.685,0,0,1-2.111,1.022H62.857a3.684,3.684,0,0,0-3.684,3.684v1.166a14.113,14.113,0,0,0,1.667,6.654l3.833,7.169H82.847l3.833-7.169a14.113,14.113,0,0,0,1.667-6.654v-1.166a3.683,3.683,0,0,0-3.683-3.684Z" transform="translate(-59.173 -151.334)" fill="#f1d333"/>
    </g>
    <g id="Group_79188" data-name="Group 79188" transform="translate(26.84 32)">
      <g id="Group_79187" data-name="Group 79187">
        <path id="Path_154" data-name="Path 154" d="M265.243,184.719h-2.931A3.683,3.683,0,0,1,266,188.4v1.166a14.113,14.113,0,0,1-1.667,6.654l-3.833,7.169h2.931l3.833-7.169a14.113,14.113,0,0,0,1.667-6.654V188.4A3.684,3.684,0,0,0,265.243,184.719Z" transform="translate(-260.496 -184.719)" fill="#e7a561"/>
      </g>
    </g>
    <g id="Group_79189" data-name="Group 79189" transform="translate(6.097 48.675)">
      <path id="Path_155" data-name="Path 155" d="M85.992,354.949H61.532a2.357,2.357,0,0,1-2.357-2.357,6.028,6.028,0,0,1,6.028-6.028H82.32a6.028,6.028,0,0,1,6.028,6.028A2.357,2.357,0,0,1,85.992,354.949Z" transform="translate(-59.175 -346.564)" fill="#f6e266"/>
    </g>
    <g id="Group_79190" data-name="Group 79190" transform="translate(6.097 49.503)">
      <path id="Path_156" data-name="Path 156" d="M85.367,354.6a6,6,0,0,1,.7,2.815,2.357,2.357,0,0,1-2.357,2.357H59.248l-.073,0c0,.01,0,.021,0,.031a2.357,2.357,0,0,0,2.357,2.357h24.46a2.357,2.357,0,0,0,2.357-2.357A6.024,6.024,0,0,0,85.367,354.6Z" transform="translate(-59.174 -354.597)" fill="#f1d333"/>
    </g>
    <g id="Group_79191" data-name="Group 79191" transform="translate(19.851 36.831)">
      <circle id="Ellipse_6" data-name="Ellipse 6" cx="0.905" cy="0.905" r="0.905" fill="#e7a561"/>
    </g>
    <g id="Group_79192" data-name="Group 79192" transform="translate(14.425 40.761)">
      <circle id="Ellipse_7" data-name="Ellipse 7" cx="0.905" cy="0.905" r="0.905" fill="#e7a561"/>
    </g>
    <g id="Group_79193" data-name="Group 79193" transform="translate(25.132 40.761)">
      <circle id="Ellipse_8" data-name="Ellipse 8" cx="0.905" cy="0.905" r="0.905" fill="#e7a561"/>
    </g>
    <g id="Group_79194" data-name="Group 79194" transform="translate(14.425 51.194)">
      <circle id="Ellipse_9" data-name="Ellipse 9" cx="0.905" cy="0.905" r="0.905" fill="#f1d333"/>
    </g>
    <g id="Group_79195" data-name="Group 79195" transform="translate(25.132 51.194)">
      <circle id="Ellipse_10" data-name="Ellipse 10" cx="0.905" cy="0.905" r="0.905" fill="#f1d333"/>
    </g>
    <g id="Group_79196" data-name="Group 79196" transform="translate(26.304 15.228)">
      <circle id="Ellipse_11" data-name="Ellipse 11" cx="6.27" cy="6.27" r="6.27" fill="#f6f1f1"/>
    </g>
    <g id="Group_79197" data-name="Group 79197" transform="translate(27.154 16.078)">
      <path id="Path_157" data-name="Path 157" d="M272.117,30.185a6.269,6.269,0,0,1-8.571,8.571,6.27,6.27,0,1,0,8.571-8.571Z" transform="translate(-263.546 -30.185)" fill="#e2dfe2"/>
    </g>
    <g id="Group_79198" data-name="Group 79198" transform="translate(25.533 14.457)">
      <path id="Path_158" data-name="Path 158" d="M254.857,28.54A7.041,7.041,0,1,1,261.9,21.5,7.049,7.049,0,0,1,254.857,28.54Zm0-12.541a5.5,5.5,0,1,0,5.5,5.5A5.506,5.506,0,0,0,254.857,16Z" transform="translate(-247.816 -14.457)" fill="#407093"/>
    </g>
    <g id="Group_79199" data-name="Group 79199" transform="translate(31.804 18.543)">
      <path id="Path_159" data-name="Path 159" d="M311.641,60.037a.769.769,0,0,1-.545-.226l-1.985-1.985a1.48,1.48,0,0,1-.437-1.054V54.887a.771.771,0,1,1,1.542,0v1.865l1.97,1.97a.771.771,0,0,1-.545,1.316Z" transform="translate(-308.675 -54.116)" fill="#2b4d66"/>
    </g>
    <g id="Group_79200" data-name="Group 79200" transform="translate(38.433 54.893)">
      <path id="Path_160" data-name="Path 160" d="M373.163,407.651a7.16,7.16,0,1,0,14.029,0,.926.926,0,0,0-.907-.739H374.07A.926.926,0,0,0,373.163,407.651Z" transform="translate(-373.017 -406.912)" fill="#407093"/>
    </g>
    <g id="Group_79201" data-name="Group 79201" transform="translate(40.474 54.893)">
      <path id="Path_161" data-name="Path 161" d="M404.958,407.651a.926.926,0,0,0-.907-.739h-1.217c.018.2.028.41.028.618a7.16,7.16,0,0,1-7.462,7.154,7.073,7.073,0,0,1-2.576-.6,7.156,7.156,0,0,0,12.134-6.432Z" transform="translate(-392.825 -406.912)" fill="#365e7d"/>
    </g>
    <path id="Path_162" data-name="Path 162" d="M373.563,435.3h13.673a7.132,7.132,0,0,0,.3-1.542H373.265A7.063,7.063,0,0,0,373.563,435.3Z" transform="translate(-334.806 -376.096)" fill="#365e7d"/>
    <path id="Path_163" data-name="Path 163" d="M480.3,435.3h2.943a7.128,7.128,0,0,0,.3-1.542H481A7.11,7.11,0,0,1,480.3,435.3Z" transform="translate(-430.816 -376.096)" fill="#2b4d66"/>
  </g>
</svg>
